<?xml version="1.0" encoding="UTF-8" standalone="no"?>
<!-- Created with Inkscape (http://www.inkscape.org/) -->

<svg
   xmlns:dc="http://purl.org/dc/elements/1.1/"
   xmlns:cc="http://creativecommons.org/ns#"
   xmlns:rdf="http://www.w3.org/1999/02/22-rdf-syntax-ns#"
   xmlns:svg="http://www.w3.org/2000/svg"
   xmlns="http://www.w3.org/2000/svg"
   version="1.1"
   width="892.91339"
   height="485.43304"
   id="svg9043"
   xml:space="preserve"><metadata
     id="metadata9049"><rdf:RDF><cc:Work
         rdf:about=""><dc:format>image/svg+xml</dc:format><dc:type
           rdf:resource="http://purl.org/dc/dcmitype/StillImage" /><dc:title></dc:title></cc:Work></rdf:RDF></metadata><defs
     id="defs9047"><clipPath
       id="clipPath9087"><path
         d="m 988.124,425.176 23.191,0 0,-30.094 -23.191,0 0,30.094 z"
         id="path9089" /></clipPath><clipPath
       id="clipPath9097"><path
         d="m 0.746,0.105 0.069,0 0,0.095 -0.069,0 0,-0.095 z"
         id="path9099" /></clipPath><linearGradient
       x1="0.74599999"
       y1="0.2"
       x2="0.815"
       y2="0.2"
       id="linearGradient9101"
       gradientUnits="userSpaceOnUse"
       gradientTransform="matrix(336.108,0,0,316.77701,737.38702,361.82101)"
       spreadMethod="pad"><stop
         id="stop9103"
         style="stop-color:#f37052;stop-opacity:1"
         offset="0" /><stop
         id="stop9105"
         style="stop-color:#ffffff;stop-opacity:1"
         offset="1" /></linearGradient><clipPath
       id="clipPath9469"><path
         d="m 997.198,572.478 14.117,0 0,-4.4349 -14.117,0 0,4.4349 z"
         id="path9471" /></clipPath><clipPath
       id="clipPath9475"><path
         d="m 997.198,570.26 c 0,0.951 3.362,2.218 7.395,2.218 3.697,0 7.058,-1.267 7.058,-2.218 0,-1.267 -3.361,-2.217 -7.058,-2.217 -4.033,0 -7.395,0.95 -7.395,2.217"
         id="path9477" /></clipPath><clipPath
       id="clipPath9485"><path
         d="m 0.773,0.651 0.042,0 0,0.01399 -0.042,0 0,-0.01399 z"
         id="path9487" /></clipPath><linearGradient
       x1="0.77298999"
       y1="0.66499001"
       x2="0.81598997"
       y2="0.66499001"
       id="linearGradient9489"
       gradientUnits="userSpaceOnUse"
       gradientTransform="matrix(336.108,0,0,316.77701,737.38702,361.82101)"
       spreadMethod="pad"><stop
         id="stop9491"
         style="stop-color:#58595b;stop-opacity:1"
         offset="0" /><stop
         id="stop9493"
         style="stop-color:#ffffff;stop-opacity:1"
         offset="1" /></linearGradient><clipPath
       id="clipPath9537"><path
         d="m 997.198,570.26 11.092,0 0,-57.97 -11.092,0 0,57.97 z"
         id="path9539" /></clipPath><clipPath
       id="clipPath9547"><path
         d="m 0.773,0.47501 0.033,0 0,0.18299 -0.033,0 0,-0.18299 z"
         id="path9549" /></clipPath><linearGradient
       x1="0.77298999"
       y1="0.65799999"
       x2="0.80599999"
       y2="0.65799999"
       id="linearGradient9551"
       gradientUnits="userSpaceOnUse"
       gradientTransform="matrix(336.108,0,0,316.77701,737.38702,361.82101)"
       spreadMethod="pad"><stop
         id="stop9553"
         style="stop-color:#58595b;stop-opacity:1"
         offset="0" /><stop
         id="stop9555"
         style="stop-color:#d6d7d9;stop-opacity:1"
         offset="1" /></linearGradient><clipPath
       id="clipPath9563"><path
         d="m 1008.29,570.26 3.025,0 0,-57.97 -3.025,0 0,57.97 z"
         id="path9565" /></clipPath><clipPath
       id="clipPath9573"><path
         d="m 0.806,0.47501 0.009,0 0,0.18299 -0.009,0 0,-0.18299 z"
         id="path9575" /></clipPath><linearGradient
       x1="0.80599999"
       y1="0.65799999"
       x2="0.815"
       y2="0.65799999"
       id="linearGradient9577"
       gradientUnits="userSpaceOnUse"
       gradientTransform="matrix(336.108,0,0,316.77701,737.38702,361.82101)"
       spreadMethod="pad"><stop
         id="stop9579"
         style="stop-color:#dcddde;stop-opacity:1"
         offset="0" /><stop
         id="stop9581"
         style="stop-color:#ffffff;stop-opacity:1"
         offset="1" /></linearGradient><clipPath
       id="clipPath9705"><path
         d="m 980.729,524.644 20.503,0 0,-76.977 -20.503,0 0,76.977 z"
         id="path9707" /></clipPath><clipPath
       id="clipPath9715"><path
         d="m 0.724,0.271 0.061,0 0,0.243 -0.061,0 0,-0.243 z"
         id="path9717" /></clipPath><linearGradient
       x1="0.72399998"
       y1="0.51401001"
       x2="0.78500003"
       y2="0.51401001"
       id="linearGradient9719"
       gradientUnits="userSpaceOnUse"
       gradientTransform="matrix(336.108,0,0,316.77701,737.38702,361.82101)"
       spreadMethod="pad"><stop
         id="stop9721"
         style="stop-color:#58595b;stop-opacity:1"
         offset="0" /><stop
         id="stop9723"
         style="stop-color:#ffffff;stop-opacity:1"
         offset="1" /></linearGradient><clipPath
       id="clipPath9763"><path
         d="m 987.115,513.557 3.6971,0 0,-65.89 -3.6971,0 0,65.89 z"
         id="path9765" /></clipPath><clipPath
       id="clipPath9773"><path
         d="m 0.743,0.271 0.011,0 0,0.208 -0.011,0 0,-0.208 z"
         id="path9775" /></clipPath><linearGradient
       x1="0.74299997"
       y1="0.479"
       x2="0.75400001"
       y2="0.479"
       id="linearGradient9777"
       gradientUnits="userSpaceOnUse"
       gradientTransform="matrix(336.108,0,0,316.77701,737.38702,361.82101)"
       spreadMethod="pad"><stop
         id="stop9779"
         style="stop-color:#f37052;stop-opacity:1"
         offset="0" /><stop
         id="stop9781"
         style="stop-color:#f48163;stop-opacity:1"
         offset="1" /></linearGradient><clipPath
       id="clipPath9789"><path
         d="m 990.812,513.557 20.503,0 0,-65.89 -20.503,0 0,65.89 z"
         id="path9791" /></clipPath><clipPath
       id="clipPath9799"><path
         d="m 0.754,0.271 0.061,0 0,0.208 -0.061,0 0,-0.208 z"
         id="path9801" /></clipPath><linearGradient
       x1="0.75400001"
       y1="0.479"
       x2="0.815"
       y2="0.479"
       id="linearGradient9803"
       gradientUnits="userSpaceOnUse"
       gradientTransform="matrix(336.108,0,0,316.77701,737.38702,361.82101)"
       spreadMethod="pad"><stop
         id="stop9805"
         style="stop-color:#f58466;stop-opacity:1"
         offset="0" /><stop
         id="stop9807"
         style="stop-color:#ffffff;stop-opacity:1"
         offset="1" /></linearGradient><clipPath
       id="clipPath9815"><path
         d="m 971.654,472.376 25.208,0 0,-24.709 -25.208,0 0,24.709 z"
         id="path9817" /></clipPath><clipPath
       id="clipPath9825"><path
         d="m 0.69701,0.271 0.07499,0 0,0.078 -0.07499,0 0,-0.078 z"
         id="path9827" /></clipPath><linearGradient
       x1="0.69700998"
       y1="0.34900001"
       x2="0.77200001"
       y2="0.34900001"
       id="linearGradient9829"
       gradientUnits="userSpaceOnUse"
       gradientTransform="matrix(336.108,0,0,316.77701,737.38702,361.82101)"
       spreadMethod="pad"><stop
         id="stop9831"
         style="stop-color:#58595b;stop-opacity:1"
         offset="0" /><stop
         id="stop9833"
         style="stop-color:#ffffff;stop-opacity:1"
         offset="1" /></linearGradient><clipPath
       id="clipPath9875"><path
         d="m 848.639,526.545 29.578,0 0,-6.0187 -29.578,0 0,6.0187 z"
         id="path9877" /></clipPath><clipPath
       id="clipPath9881"><path
         d="m 878.216,525.595 -2.016,74.126 -15.125,20.59 -12.436,-9.503 0,-81.729 12.772,-8.236 16.805,4.752"
         id="path9883" /></clipPath><clipPath
       id="clipPath9891"><path
         d="m 0.331,0.502 0.088,0 0,0.018 -0.088,0 0,-0.018 z"
         id="path9893" /></clipPath><linearGradient
       x1="0.41901001"
       y1="0.50199997"
       x2="0.41901001"
       y2="0.51999998"
       id="linearGradient9895"
       gradientUnits="userSpaceOnUse"
       gradientTransform="matrix(336.108,0,0,316.77701,737.38702,361.82101)"
       spreadMethod="pad"><stop
         id="stop9897"
         style="stop-color:#669ad2;stop-opacity:1"
         offset="0" /><stop
         id="stop9899"
         style="stop-color:#6a9dd3;stop-opacity:1"
         offset="1" /></linearGradient><clipPath
       id="clipPath9907"><path
         d="m 848.639,620.311 29.578,0 0,-93.766 -29.578,0 0,93.766 z"
         id="path9909" /></clipPath><clipPath
       id="clipPath9913"><path
         d="m 878.216,525.595 -2.016,74.126 -15.125,20.59 -12.436,-9.503 0,-81.729 12.772,-8.236 16.805,4.752"
         id="path9915" /></clipPath><clipPath
       id="clipPath9923"><path
         d="m 0.331,0.52 0.088,0 0,0.29599 -0.088,0 0,-0.29599 z"
         id="path9925" /></clipPath><linearGradient
       x1="0.41901001"
       y1="0.51999998"
       x2="0.41901001"
       y2="0.81598997"
       id="linearGradient9927"
       gradientUnits="userSpaceOnUse"
       gradientTransform="matrix(336.108,0,0,316.77701,737.38702,361.82101)"
       spreadMethod="pad"><stop
         id="stop9929"
         style="stop-color:#6b9dd4;stop-opacity:1"
         offset="0" /><stop
         id="stop9931"
         style="stop-color:#c7d5ee;stop-opacity:1"
         offset="1" /></linearGradient><clipPath
       id="clipPath9971"><path
         d="m 866.452,547.136 30.922,0 0,-21.224 -30.922,0 0,21.224 z"
         id="path9973" /></clipPath><clipPath
       id="clipPath9977"><path
         d="m 897.374,529.713 0,75.393 -14.788,7.286 -16.134,-11.721 0,-68.424 11.428,-3.484 4.37,-2.852 15.124,3.802"
         id="path9979" /></clipPath><clipPath
       id="clipPath9987"><path
         d="m 0.384,0.51801 0.092,0 0,0.06699 -0.092,0 0,-0.06699 z"
         id="path9989" /></clipPath><linearGradient
       x1="0.47600001"
       y1="0.51801002"
       x2="0.47600001"
       y2="0.58500999"
       id="linearGradient9991"
       gradientUnits="userSpaceOnUse"
       gradientTransform="matrix(336.108,0,0,316.77701,737.38702,361.82101)"
       spreadMethod="pad"><stop
         id="stop9993"
         style="stop-color:#669ad2;stop-opacity:1"
         offset="0" /><stop
         id="stop9995"
         style="stop-color:#7ca7d8;stop-opacity:1"
         offset="1" /></linearGradient><clipPath
       id="clipPath10003"><path
         d="m 866.452,612.392 30.922,0 0,-65.256 -30.922,0 0,65.256 z"
         id="path10005" /></clipPath><clipPath
       id="clipPath10009"><path
         d="m 897.374,529.713 0,75.393 -14.788,7.286 -16.134,-11.721 0,-68.424 11.428,-3.484 4.37,-2.852 15.124,3.802"
         id="path10011" /></clipPath><clipPath
       id="clipPath10019"><path
         d="m 0.384,0.58501 0.092,0 0,0.20599 -0.092,0 0,-0.20599 z"
         id="path10021" /></clipPath><linearGradient
       x1="0.47600001"
       y1="0.58500999"
       x2="0.47600001"
       y2="0.79100001"
       id="linearGradient10023"
       gradientUnits="userSpaceOnUse"
       gradientTransform="matrix(336.108,0,0,316.77701,737.38702,361.82101)"
       spreadMethod="pad"><stop
         id="stop10025"
         style="stop-color:#7da7d8;stop-opacity:1"
         offset="0" /><stop
         id="stop10027"
         style="stop-color:#c7d5ee;stop-opacity:1"
         offset="1" /></linearGradient><clipPath
       id="clipPath10067"><path
         d="m 882.25,553.788 16.805,0 0,-27.876 -16.805,0 0,27.876 z"
         id="path10069" /></clipPath><clipPath
       id="clipPath10073"><path
         d="m 882.25,525.911 16.805,3.802 0,75.076 -16.805,7.603 0,-86.481"
         id="path10075" /></clipPath><clipPath
       id="clipPath10083"><path
         d="m 0.431,0.51801 0.05,0 0,0.08799 -0.05,0 0,-0.08799 z"
         id="path10085" /></clipPath><linearGradient
       x1="0.48100001"
       y1="0.51801002"
       x2="0.48100001"
       y2="0.60600001"
       id="linearGradient10087"
       gradientUnits="userSpaceOnUse"
       gradientTransform="matrix(336.108,0,0,316.77701,737.38702,361.82101)"
       spreadMethod="pad"><stop
         id="stop10089"
         style="stop-color:#0071bc;stop-opacity:1"
         offset="0" /><stop
         id="stop10091"
         style="stop-color:#3b89c9;stop-opacity:1"
         offset="1" /></linearGradient><clipPath
       id="clipPath10099"><path
         d="m 882.25,612.392 16.805,0 0,-58.604 -16.805,0 0,58.604 z"
         id="path10101" /></clipPath><clipPath
       id="clipPath10105"><path
         d="m 882.25,525.911 16.805,3.802 0,75.076 -16.805,7.603 0,-86.481"
         id="path10107" /></clipPath><clipPath
       id="clipPath10115"><path
         d="m 0.431,0.606 0.05,0 0,0.185 -0.05,0 0,-0.185 z"
         id="path10117" /></clipPath><linearGradient
       x1="0.48100001"
       y1="0.60600001"
       x2="0.48100001"
       y2="0.79100001"
       id="linearGradient10119"
       gradientUnits="userSpaceOnUse"
       gradientTransform="matrix(336.108,0,0,316.77701,737.38702,361.82101)"
       spreadMethod="pad"><stop
         id="stop10121"
         style="stop-color:#3c8ac9;stop-opacity:1"
         offset="0" /><stop
         id="stop10123"
         style="stop-color:#c7d5ee;stop-opacity:1"
         offset="1" /></linearGradient><clipPath
       id="clipPath10163"><path
         d="m 861.411,531.614 17.814,0 0,-11.087 -17.814,0 0,11.087 z"
         id="path10165" /></clipPath><clipPath
       id="clipPath10169"><path
         d="m 861.411,520.843 17.814,4.435 0,88.698 -17.814,6.969 0,-100.102"
         id="path10171" /></clipPath><clipPath
       id="clipPath10179"><path
         d="m 0.369,0.502 0.053,0 0,0.034 -0.053,0 0,-0.034 z"
         id="path10181" /></clipPath><linearGradient
       x1="0.42199999"
       y1="0.50199997"
       x2="0.42199999"
       y2="0.53600001"
       id="linearGradient10183"
       gradientUnits="userSpaceOnUse"
       gradientTransform="matrix(336.108,0,0,316.77701,737.38702,361.82101)"
       spreadMethod="pad"><stop
         id="stop10185"
         style="stop-color:#0071bc;stop-opacity:1"
         offset="0" /><stop
         id="stop10187"
         style="stop-color:#0078c0;stop-opacity:1"
         offset="1" /></linearGradient><clipPath
       id="clipPath10195"><path
         d="m 861.411,603.522 17.814,0 0,-71.592 -17.814,0 0,71.592 z"
         id="path10197" /></clipPath><clipPath
       id="clipPath10201"><path
         d="m 861.411,520.843 17.814,4.435 0,88.698 -17.814,6.969 0,-100.102"
         id="path10203" /></clipPath><clipPath
       id="clipPath10211"><path
         d="m 0.369,0.537 0.053,0 0,0.226 -0.053,0 0,-0.226 z"
         id="path10213" /></clipPath><linearGradient
       x1="0.42199999"
       y1="0.53600001"
       x2="0.42199999"
       y2="0.76300001"
       id="linearGradient10215"
       gradientUnits="userSpaceOnUse"
       gradientTransform="matrix(336.108,0,0,316.77701,737.38702,361.82101)"
       spreadMethod="pad"><stop
         id="stop10217"
         style="stop-color:#0079c0;stop-opacity:1"
         offset="0" /><stop
         id="stop10219"
         style="stop-color:#a3bfe4;stop-opacity:1"
         offset="1" /></linearGradient><clipPath
       id="clipPath10227"><path
         d="m 861.411,620.945 17.814,0 0,-17.423 -17.814,0 0,17.423 z"
         id="path10229" /></clipPath><clipPath
       id="clipPath10233"><path
         d="m 861.411,520.843 17.814,4.435 0,88.698 -17.814,6.969 0,-100.102"
         id="path10235" /></clipPath><clipPath
       id="clipPath10243"><path
         d="m 0.369,0.763 0.053,0 0,0.05499 -0.053,0 0,-0.05499 z"
         id="path10245" /></clipPath><linearGradient
       x1="0.42199999"
       y1="0.76300001"
       x2="0.42199999"
       y2="0.81799001"
       id="linearGradient10247"
       gradientUnits="userSpaceOnUse"
       gradientTransform="matrix(336.108,0,0,316.77701,737.38702,361.82101)"
       spreadMethod="pad"><stop
         id="stop10249"
         style="stop-color:#a4bfe4;stop-opacity:1"
         offset="0" /><stop
         id="stop10251"
         style="stop-color:#c7d5ee;stop-opacity:1"
         offset="1" /></linearGradient><clipPath
       id="clipPath10341"><path
         d="m 994.51,526.545 6.0499,0 0,-4.1181 -6.0499,0 0,4.1181 z"
         id="path10343" /></clipPath><clipPath
       id="clipPath10347"><path
         d="m 994.51,526.545 c 0,0 2.352,-0.317 3.697,-0.634 1.344,0 2.353,-0.633 2.353,-0.633 l 0,-1.584 c 0,0 -2.017,-0.633 -3.362,-0.95 -1.344,0 -2.688,-0.317 -2.688,-0.317 l 0,4.118"
         id="path10349" /></clipPath><clipPath
       id="clipPath10357"><path
         d="m 0.765,0.507 0.018,0 0,0.013 -0.018,0 0,-0.013 z"
         id="path10359" /></clipPath><linearGradient
       x1="0.76499999"
       y1="0.51999998"
       x2="0.78299999"
       y2="0.51999998"
       id="linearGradient10361"
       gradientUnits="userSpaceOnUse"
       gradientTransform="matrix(336.108,0,0,316.77701,737.38702,361.82101)"
       spreadMethod="pad"><stop
         id="stop10363"
         style="stop-color:#58595b;stop-opacity:1"
         offset="0" /><stop
         id="stop10365"
         style="stop-color:#ffffff;stop-opacity:1"
         offset="1" /></linearGradient><clipPath
       id="clipPath10407"><path
         d="m 1005.265,517.042 6.0499,0 0,-6.6523 -6.0499,0 0,6.6523 z"
         id="path10409" /></clipPath><clipPath
       id="clipPath10413"><path
         d="m 1005.265,517.042 c 0,0 2.689,-0.951 3.697,-0.951 1.345,-0.316 2.353,-1.583 2.353,-1.583 l 0,-1.584 c 0,0 -1.68,-1.584 -3.025,-1.901 -1.344,-0.317 -3.025,-0.634 -3.025,-0.634 l 0,6.653"
         id="path10415" /></clipPath><clipPath
       id="clipPath10423"><path
         d="m 0.797,0.469 0.018,0 0,0.021 -0.018,0 0,-0.021 z"
         id="path10425" /></clipPath><linearGradient
       x1="0.79699999"
       y1="0.49000999"
       x2="0.815"
       y2="0.49000999"
       id="linearGradient10427"
       gradientUnits="userSpaceOnUse"
       gradientTransform="matrix(336.108,0,0,316.77701,737.38702,361.82101)"
       spreadMethod="pad"><stop
         id="stop10429"
         style="stop-color:#ed1c24;stop-opacity:1"
         offset="0" /><stop
         id="stop10431"
         style="stop-color:#ffffff;stop-opacity:1"
         offset="1" /></linearGradient><clipPath
       id="clipPath10473"><path
         d="m 988.46,478.395 7.3943,0 0,-11.087 -7.3943,0 0,11.087 z"
         id="path10475" /></clipPath><clipPath
       id="clipPath10479"><path
         d="m 988.46,478.395 c 0,0 2.689,-0.634 3.697,-0.95 2.353,-0.951 3.361,-2.218 3.361,-2.218 l 0,-5.385 c 0,0 -3.025,-1.901 -4.369,-1.901 -1.345,-0.316 -2.689,-0.633 -2.689,-0.633 l 0,11.087"
         id="path10481" /></clipPath><clipPath
       id="clipPath10489"><path
         d="m 0.747,0.333 0.021,0 0,0.035 -0.021,0 0,-0.035 z"
         id="path10491" /></clipPath><linearGradient
       x1="0.74699003"
       y1="0.368"
       x2="0.76801002"
       y2="0.368"
       id="linearGradient10493"
       gradientUnits="userSpaceOnUse"
       gradientTransform="matrix(336.108,0,0,316.77701,737.38702,361.82101)"
       spreadMethod="pad"><stop
         id="stop10495"
         style="stop-color:#58595b;stop-opacity:1"
         offset="0" /><stop
         id="stop10497"
         style="stop-color:#ffffff;stop-opacity:1"
         offset="1" /></linearGradient><clipPath
       id="clipPath10543"><path
         d="m 971.654,424.86 24.2,0 0,-44.666 -24.2,0 0,44.666 z"
         id="path10545" /></clipPath><clipPath
       id="clipPath10553"><path
         d="m 0.69701,0.058 0.071,0 0,0.141 -0.071,0 0,-0.141 z"
         id="path10555" /></clipPath><linearGradient
       x1="0.69700998"
       y1="0.19901"
       x2="0.76801002"
       y2="0.19901"
       id="linearGradient10557"
       gradientUnits="userSpaceOnUse"
       gradientTransform="matrix(336.108,0,0,316.77701,737.38702,361.82101)"
       spreadMethod="pad"><stop
         id="stop10559"
         style="stop-color:#58595b;stop-opacity:1"
         offset="0" /><stop
         id="stop10561"
         style="stop-color:#ffffff;stop-opacity:1"
         offset="1" /></linearGradient><clipPath
       id="clipPath11717"><path
         d="m -0.045959,841.906 1190.539959,0 0,-841.89 -1190.539959,0 0,841.89 z"
         id="path11719" /></clipPath><clipPath
       id="clipPath11723"><path
         d="m -0.045959,840.996 1190.019959,0 0,-840.98 -1190.019959,0 0,840.98 z"
         id="path11725" /></clipPath><clipPath
       id="clipPath11729"><path
         d="m 420.504,115.656 132.21,0 0,-79.66 -132.21,0 0,79.66 z"
         id="path11731" /></clipPath><clipPath
       id="clipPath11735"><path
         d="m 420.535,35.986 132.183,0 0,79.673 -132.183,0 0,-79.673 z"
         id="path11737" /></clipPath></defs><g
     transform="matrix(1.25,0,0,-1.25,-347.22563,801.02034)"
     id="g9051"><g
       id="g9083"><g
         clip-path="url(#clipPath9087)"
         id="g9085"><g
           id="g9091"><g
             id="g9093"><g
               clip-path="url(#clipPath9097)"
               id="g9095"><path
                 d="m 988.124,425.176 23.191,0 0,-30.094 -23.191,0 0,30.094 z"
                 id="path9107"
                 style="fill:url(#linearGradient9101);stroke:none" /></g></g></g></g></g><g
       id="g9465"><g
         clip-path="url(#clipPath9469)"
         id="g9467"><g
           clip-path="url(#clipPath9475)"
           id="g9473"><g
             id="g9479"><g
               id="g9481"><g
                 clip-path="url(#clipPath9485)"
                 id="g9483"><path
                   d="m 997.198,570.26 c 0,0.951 3.362,2.218 7.395,2.218 3.697,0 7.058,-1.267 7.058,-2.218 0,-1.267 -3.361,-2.217 -7.058,-2.217 -4.033,0 -7.395,0.95 -7.395,2.217"
                   id="path9495"
                   style="fill:url(#linearGradient9489);stroke:none" /></g></g></g></g></g></g><g
       id="g9533"><g
         clip-path="url(#clipPath9537)"
         id="g9535"><g
           id="g9541"><g
             id="g9543"><g
               clip-path="url(#clipPath9547)"
               id="g9545"><path
                 d="m 997.198,570.26 11.092,0 0,-57.97 -11.092,0 0,57.97 z"
                 id="path9557"
                 style="fill:url(#linearGradient9551);stroke:none" /></g></g></g></g></g><g
       id="g9559"><g
         clip-path="url(#clipPath9563)"
         id="g9561"><g
           id="g9567"><g
             id="g9569"><g
               clip-path="url(#clipPath9573)"
               id="g9571"><path
                 d="m 1008.29,570.26 3.025,0 0,-57.97 -3.025,0 0,57.97 z"
                 id="path9583"
                 style="fill:url(#linearGradient9577);stroke:none" /></g></g></g></g></g><g
       id="g9701"><g
         clip-path="url(#clipPath9705)"
         id="g9703"><g
           id="g9709"><g
             id="g9711"><g
               clip-path="url(#clipPath9715)"
               id="g9713"><path
                 d="m 980.729,524.644 20.503,0 0,-76.977 -20.503,0 0,76.977 z"
                 id="path9725"
                 style="fill:url(#linearGradient9719);stroke:none" /></g></g></g></g></g><g
       id="g9759"><g
         clip-path="url(#clipPath9763)"
         id="g9761"><g
           id="g9767"><g
             id="g9769"><g
               clip-path="url(#clipPath9773)"
               id="g9771"><path
                 d="m 987.115,513.557 3.6971,0 0,-65.89 -3.6971,0 0,65.89 z"
                 id="path9783"
                 style="fill:url(#linearGradient9777);stroke:none" /></g></g></g></g></g><g
       id="g9785"><g
         clip-path="url(#clipPath9789)"
         id="g9787"><g
           id="g9793"><g
             id="g9795"><g
               clip-path="url(#clipPath9799)"
               id="g9797"><path
                 d="m 990.812,513.557 20.503,0 0,-65.89 -20.503,0 0,65.89 z"
                 id="path9809"
                 style="fill:url(#linearGradient9803);stroke:none" /></g></g></g></g></g><g
       id="g9811"><g
         clip-path="url(#clipPath9815)"
         id="g9813"><g
           id="g9819"><g
             id="g9821"><g
               clip-path="url(#clipPath9825)"
               id="g9823"><path
                 d="m 971.654,472.376 25.208,0 0,-24.709 -25.208,0 0,24.709 z"
                 id="path9835"
                 style="fill:url(#linearGradient9829);stroke:none" /></g></g></g></g></g><g
       id="g9871"><g
         clip-path="url(#clipPath9875)"
         id="g9873"><g
           clip-path="url(#clipPath9881)"
           id="g9879"><g
             id="g9885"><g
               id="g9887"><g
                 clip-path="url(#clipPath9891)"
                 id="g9889"><path
                   d="m 878.216,525.595 -2.016,74.126 -15.125,20.59 -12.436,-9.503 0,-81.729 12.772,-8.236 16.805,4.752"
                   id="path9901"
                   style="fill:url(#linearGradient9895);stroke:none" /></g></g></g></g></g></g><g
       id="g9903"><g
         clip-path="url(#clipPath9907)"
         id="g9905"><g
           clip-path="url(#clipPath9913)"
           id="g9911"><g
             id="g9917"><g
               id="g9919"><g
                 clip-path="url(#clipPath9923)"
                 id="g9921"><path
                   d="m 878.216,525.595 -2.016,74.126 -15.125,20.59 -12.436,-9.503 0,-81.729 12.772,-8.236 16.805,4.752"
                   id="path9933"
                   style="fill:url(#linearGradient9927);stroke:none" /></g></g></g></g></g></g><g
       id="g9967"><g
         clip-path="url(#clipPath9971)"
         id="g9969"><g
           clip-path="url(#clipPath9977)"
           id="g9975"><g
             id="g9981"><g
               id="g9983"><g
                 clip-path="url(#clipPath9987)"
                 id="g9985"><path
                   d="m 897.374,529.713 0,75.393 -14.788,7.286 -16.134,-11.721 0,-68.424 11.428,-3.484 4.37,-2.852 15.124,3.802"
                   id="path9997"
                   style="fill:url(#linearGradient9991);stroke:none" /></g></g></g></g></g></g><g
       id="g9999"><g
         clip-path="url(#clipPath10003)"
         id="g10001"><g
           clip-path="url(#clipPath10009)"
           id="g10007"><g
             id="g10013"><g
               id="g10015"><g
                 clip-path="url(#clipPath10019)"
                 id="g10017"><path
                   d="m 897.374,529.713 0,75.393 -14.788,7.286 -16.134,-11.721 0,-68.424 11.428,-3.484 4.37,-2.852 15.124,3.802"
                   id="path10029"
                   style="fill:url(#linearGradient10023);stroke:none" /></g></g></g></g></g></g><g
       id="g10063"><g
         clip-path="url(#clipPath10067)"
         id="g10065"><g
           clip-path="url(#clipPath10073)"
           id="g10071"><g
             id="g10077"><g
               id="g10079"><g
                 clip-path="url(#clipPath10083)"
                 id="g10081"><path
                   d="m 882.25,525.911 16.805,3.802 0,75.076 -16.805,7.603 0,-86.481"
                   id="path10093"
                   style="fill:url(#linearGradient10087);stroke:none" /></g></g></g></g></g></g><g
       id="g10095"><g
         clip-path="url(#clipPath10099)"
         id="g10097"><g
           clip-path="url(#clipPath10105)"
           id="g10103"><g
             id="g10109"><g
               id="g10111"><g
                 clip-path="url(#clipPath10115)"
                 id="g10113"><path
                   d="m 882.25,525.911 16.805,3.802 0,75.076 -16.805,7.603 0,-86.481"
                   id="path10125"
                   style="fill:url(#linearGradient10119);stroke:none" /></g></g></g></g></g></g><g
       id="g10159"><g
         clip-path="url(#clipPath10163)"
         id="g10161"><g
           clip-path="url(#clipPath10169)"
           id="g10167"><g
             id="g10173"><g
               id="g10175"><g
                 clip-path="url(#clipPath10179)"
                 id="g10177"><path
                   d="m 861.411,520.843 17.814,4.435 0,88.698 -17.814,6.969 0,-100.102"
                   id="path10189"
                   style="fill:url(#linearGradient10183);stroke:none" /></g></g></g></g></g></g><g
       id="g10191"><g
         clip-path="url(#clipPath10195)"
         id="g10193"><g
           clip-path="url(#clipPath10201)"
           id="g10199"><g
             id="g10205"><g
               id="g10207"><g
                 clip-path="url(#clipPath10211)"
                 id="g10209"><path
                   d="m 861.411,520.843 17.814,4.435 0,88.698 -17.814,6.969 0,-100.102"
                   id="path10221"
                   style="fill:url(#linearGradient10215);stroke:none" /></g></g></g></g></g></g><g
       id="g10223"><g
         clip-path="url(#clipPath10227)"
         id="g10225"><g
           clip-path="url(#clipPath10233)"
           id="g10231"><g
             id="g10237"><g
               id="g10239"><g
                 clip-path="url(#clipPath10243)"
                 id="g10241"><path
                   d="m 861.411,520.843 17.814,4.435 0,88.698 -17.814,6.969 0,-100.102"
                   id="path10253"
                   style="fill:url(#linearGradient10247);stroke:none" /></g></g></g></g></g></g><g
       id="g10337"><g
         clip-path="url(#clipPath10341)"
         id="g10339"><g
           clip-path="url(#clipPath10347)"
           id="g10345"><g
             id="g10351"><g
               id="g10353"><g
                 clip-path="url(#clipPath10357)"
                 id="g10355"><path
                   d="m 994.51,526.545 c 0,0 2.352,-0.317 3.697,-0.634 1.344,0 2.353,-0.633 2.353,-0.633 l 0,-1.584 c 0,0 -2.017,-0.633 -3.362,-0.95 -1.344,0 -2.688,-0.317 -2.688,-0.317 l 0,4.118"
                   id="path10367"
                   style="fill:url(#linearGradient10361);stroke:none" /></g></g></g></g></g></g><g
       id="g10403"><g
         clip-path="url(#clipPath10407)"
         id="g10405"><g
           clip-path="url(#clipPath10413)"
           id="g10411"><g
             id="g10417"><g
               id="g10419"><g
                 clip-path="url(#clipPath10423)"
                 id="g10421"><path
                   d="m 1005.265,517.042 c 0,0 2.689,-0.951 3.697,-0.951 1.345,-0.316 2.353,-1.583 2.353,-1.583 l 0,-1.584 c 0,0 -1.68,-1.584 -3.025,-1.901 -1.344,-0.317 -3.025,-0.634 -3.025,-0.634 l 0,6.653"
                   id="path10433"
                   style="fill:url(#linearGradient10427);stroke:none" /></g></g></g></g></g></g><g
       id="g10469"><g
         clip-path="url(#clipPath10473)"
         id="g10471"><g
           clip-path="url(#clipPath10479)"
           id="g10477"><g
             id="g10483"><g
               id="g10485"><g
                 clip-path="url(#clipPath10489)"
                 id="g10487"><path
                   d="m 988.46,478.395 c 0,0 2.689,-0.634 3.697,-0.95 2.353,-0.951 3.361,-2.218 3.361,-2.218 l 0,-5.385 c 0,0 -3.025,-1.901 -4.369,-1.901 -1.345,-0.316 -2.689,-0.633 -2.689,-0.633 l 0,11.087"
                   id="path10499"
                   style="fill:url(#linearGradient10493);stroke:none" /></g></g></g></g></g></g><g
       id="g10539"><g
         clip-path="url(#clipPath10543)"
         id="g10541"><g
           id="g10547"><g
             id="g10549"><g
               clip-path="url(#clipPath10553)"
               id="g10551"><path
                 d="m 971.654,424.86 24.2,0 0,-44.666 -24.2,0 0,44.666 z"
                 id="path10563"
                 style="fill:url(#linearGradient10557);stroke:none" /></g></g></g></g></g><g
       transform="matrix(5.5118723,0,0,5.5118723,-2047.8974,27.928163)"
       id="g11713"><g
         clip-path="url(#clipPath11717)"
         id="g11715"><g
           clip-path="url(#clipPath11723)"
           id="g11721"><g
             clip-path="url(#clipPath11729)"
             id="g11727"><g
               clip-path="url(#clipPath11735)"
               id="g11733"><g
                 id="g11739"><path
                   d="m 422.454,86.326 50.31,24.36 78.26,-24.36 -128.57,0"
                   id="path11741"
                   style="fill:#ed1c29;fill-opacity:1;fill-rule:nonzero;stroke:none" /><path
                   d="m 457.814,41.316 3.38,45.01 21.45,0 4.29,-45.01 -10.66,0 -1.3,11.27 -5.33,0 -1.04,-11.27 -10.79,0"
                   id="path11743"
                   style="fill:#231f20;fill-opacity:1;fill-rule:nonzero;stroke:none" /><path
                   d="m 503.574,84.086 -14.69,0 0,-42.77 14.95,0 0,10.43 -4.03,0 0,22.12 3.77,0 0,10.22"
                   id="path11745"
                   style="fill:#231f20;fill-opacity:1;fill-rule:nonzero;stroke:none" /><path
                   d="m 506.434,41.316 0,42.7 10.4,0 0,-15.61 3.12,-0.07 0,15.47 10.4,-0.07 0,-42.49 -10.27,0 0,15.61 -3.38,0 -0.13,-15.54 -10.14,0"
                   id="path11747"
                   style="fill:#231f20;fill-opacity:1;fill-rule:evenodd;stroke:none" /><path
                   d="m 533.084,83.876 0.13,-42.49 14.43,0 0,9.45 -3.9,0 0,33.04 -10.66,0"
                   id="path11749"
                   style="fill:#231f20;fill-opacity:1;fill-rule:nonzero;stroke:none" /><path
                   d="m 430.124,41.316 0,42.56 25.87,0 0,-17.99 -3.77,-3.08 3.51,-2.94 0,-18.55 -25.61,0"
                   id="path11751"
                   style="fill:#231f20;fill-opacity:1;fill-rule:nonzero;stroke:none" /><path
                   d="m 443.774,64.836 -3.12,0 0,8.75 3.12,0 0,-8.75 z"
                   id="path11753"
                   style="fill:#ffffff;fill-opacity:1;fill-rule:nonzero;stroke:none" /><path
                   d="m 443.774,52.236 -3.12,0 0,8.75 3.12,0 0,-8.75 z"
                   id="path11755"
                   style="fill:#ffffff;fill-opacity:1;fill-rule:nonzero;stroke:none" /><path
                   d="m 474.194,62.806 -3.51,0 1.82,10.85 1.69,-10.85"
                   id="path11757"
                   style="fill:#ffffff;fill-opacity:1;fill-rule:nonzero;stroke:none" /></g></g></g></g></g></g></g></svg>